<svg width="406" height="131" viewBox="0 0 406 131" fill="none" xmlns="http://www.w3.org/2000/svg">
<path d="M2 56.1916C19.3795 42.0407 38.9641 31.5718 61.6047 25.7632C83.4555 20.1572 107.463 19.1213 127.219 30.715C138.319 37.2285 148.85 50.8039 145.269 63.422C142.2 74.2342 131.796 80.8495 119.628 80.3406C109.968 79.9366 96.5949 74.4538 94.1254 65.1802C91.3904 54.9094 98.2116 46.4081 108.676 42.8074C140.309 31.9224 176.685 49.6018 196.056 72.1594C202.392 79.5364 208.354 91.0827 205.605 100.578C202.949 109.754 195.717 118.24 185.46 121.139C171.941 124.961 169.635 106.213 180.755 101.978C189.151 98.7803 199.374 103.676 206.238 107.845C212.079 111.392 217.398 115.596 223.239 119.13C230.736 123.665 238.678 126.532 247.536 128.136C262.469 130.841 279.936 126.89 293.203 120.493C303.71 115.428 312.003 108.824 320.129 101.081" stroke="#2F4653" stroke-width="3" stroke-linecap="round" stroke-linejoin="round"/>
<path d="M345.58 65.3876C345.129 71.3291 343.578 77.1335 342.418 83.0047C342.114 84.5472 341.906 86.0928 341.653 87.639C341.49 88.637 342.626 87.4238 342.948 87.1341C345.389 84.9381 347.446 82.4815 349.371 79.9975C351.249 77.5746 353.271 75.2187 355.136 72.7935C356.359 71.2044 357.951 69.8356 359.099 68.2153" stroke="#2F4653" stroke-width="3" stroke-linecap="round" stroke-linejoin="round"/>
<path d="M344.131 65.3876C346.764 60.8328 350.819 56.7162 354.395 52.4854C360.767 44.9468 367.434 37.5186 374.159 30.124C380.101 23.5906 386.064 17.0589 392.183 10.6015C395.032 7.59422 398.534 4.93978 401.505 2" stroke="#2F4653" stroke-width="3" stroke-linecap="round" stroke-linejoin="round"/>
<path d="M401.505 2C398.967 5.7064 396.055 9.27263 393.606 13.0156C390.642 17.5457 388.079 22.1979 385.049 26.7078C378.927 35.8179 373.603 45.0837 368.332 54.4513C365.905 58.7645 362.863 62.8872 360.415 67.1893C359.924 68.0531 359.099 68.9499 359.099 69.9153" stroke="#2F4653" stroke-width="3" stroke-linecap="round" stroke-linejoin="round"/>
<path d="M359.099 69.6365C361.661 70.9216 364.146 72.3541 366.82 73.5308C368.654 74.338 370.62 75.006 372.478 75.7892C376.344 77.4188 380.294 78.9687 384.229 80.5197C389.076 82.4303 393.518 84.7471 398.453 86.5565C398.893 86.7179 403.771 88.6865 403.924 87.7956C404.278 85.7269 403.287 83.4447 403.168 81.3682C402.947 77.5413 402.813 73.7129 402.572 69.8867C402.299 65.5694 401.803 61.2601 401.62 56.9404C401.422 52.2785 401.568 47.6131 401.406 42.9503C401.176 36.3241 401.536 29.6807 401.13 23.0577C400.826 18.0811 400.834 13.101 401.335 8.13363C401.442 7.07765 401.031 5.1603 402.011 4.26376" stroke="#2F4653" stroke-width="3" stroke-linecap="round" stroke-linejoin="round"/>
<path d="M401.505 2C395.454 3.95145 390.132 6.61337 384.807 9.41542C377.557 13.2304 370.551 17.2801 363.383 21.1728C355.566 25.4178 347.489 29.3879 339.587 33.5487C334.188 36.3911 328.781 39.1906 322.888 41.5068C320.285 42.5299 317.107 43.3025 314.779 44.656C314.042 45.0842 314.017 45.0376 314.637 45.5585C317.997 48.3846 322.128 50.9915 326.13 53.3463C330.131 55.7004 333.791 58.2801 337.535 60.8248C340.07 62.5478 343.316 63.4853 345.547 65.3876" stroke="#2F4653" stroke-width="3" stroke-linecap="round" stroke-linejoin="round"/>
</svg>
