<svg width="518" height="216" viewBox="0 0 518 216" fill="none" xmlns="http://www.w3.org/2000/svg">
<path opacity="0.8" d="M-79 167.954C-37.7991 162.394 3.38057 156.592 38.761 133.855C76.8472 109.378 112.364 73.8266 130.671 33.1398C136.75 19.6298 141.219 4.62997 143.304 -9.93497C144.337 -17.1589 143.917 -23.9417 139.234 -29.9972C127.594 -45.0474 101.126 -19.0146 93.881 -11.0219C81.6431 2.47799 70.8852 17.0812 58.4583 30.4379C43.5106 46.5041 27.8162 62.1067 11.5753 76.9909C-5.42154 92.5681 -29.9981 114.059 -55.8515 111.96C-75.2014 110.389 -69.7047 90.1318 -61.1258 79.5375C-45.7125 60.5031 -22.7618 61.3148 -3.3686 74.4133C21.1841 90.9966 40.8962 113.971 74.1837 110.904C100.071 108.519 131.332 92.6243 134.48 65.5933C137.256 41.7628 110.831 22.2831 92.7741 10.1583C80.5833 1.97242 63.5227 -10.9114 47.5515 -10.2766C41.2868 -10.0276 38.5793 -2.81581 37.6215 2.11478C34.4781 18.2945 36.5774 35.6115 37.3284 51.9287C38.7975 83.8469 40.7833 115.656 55.0723 145.097C64.0514 163.597 81.1554 146.802 88.509 136.401C101.612 117.869 105.824 95.177 104.072 73.0779C103.488 65.7147 101.171 49.5761 89.0625 52.9225C80.6319 55.2523 73.2318 62.9685 67.4768 68.8542C61.4348 75.0335 57.9703 81.6416 55.7886 89.8171C51.0505 107.573 47.7494 125.649 42.7656 143.358C36.8217 164.477 25.865 183.651 11.3149 200.563C1.57265 211.887 -12.4976 217.805 -27.2334 211.308C-39.2449 206.013 -38.1121 197.026 -29.7729 188.451C-16.739 175.05 1.53549 170.022 19.4543 165.718C38.5104 161.141 57.2629 155.465 76.0395 149.942C114.02 138.768 152.228 126.858 179.573 97.7053C197.821 78.2512 212.145 55.1997 224.177 31.8044C228.277 23.8311 231.088 15.3019 234.595 7.08375C236.95 1.56607 240.512 -4.52252 241.432 -10.494C243.475 -23.7459 211.86 -9.39697 208.549 -7.82317C195.298 -1.52446 182.902 6.76354 170.164 13.9471C159.513 19.9531 147.961 24.6084 136.662 29.382C115.056 38.51 91.4037 43.7753 68.2256 47.7672C50.7129 50.7834 32.5548 56.8347 14.8311 57.9536C3.71193 58.6555 -8.38153 54.3395 -17.3033 48.1088C-21.5313 45.1561 -25.6864 42.2192 -30.0984 39.5063C-32.3499 38.1218 -35.2893 36.9042 -36.7402 34.6305C-38.8194 31.3721 -36.7315 27.4497 -34.5914 24.7857C-27.6564 16.1532 -18.6275 11.0102 -8.12202 7.30114C10.9195 0.578356 28.1728 0.425683 48.1701 1.61788C70.9099 2.97358 93.0395 -1.08565 113.09 -11.6431C121.039 -15.8285 130.546 -23.0435 140.243 -22.0158C152.188 -20.7498 156.878 -2.6526 160.461 6.30734C166.338 21.004 167.671 36.318 165.605 51.9287C163.279 69.5102 155.097 85.7774 144.41 100.097C133.67 114.488 121.846 128.536 109.444 141.65C99.039 152.65 85.6461 162.96 77.2115 175.408C74.3593 179.617 65.0575 199.36 71.7744 204.165C76.3139 207.413 89.9473 199.242 93.7508 197.395C107.241 190.843 119.454 181.174 130.801 171.743C156.901 150.05 179.052 123.654 198.944 96.7426C208.065 84.404 216.455 72.1955 227.498 61.3076C237.14 51.8003 247.257 42.805 258.004 34.4441C279.586 17.6539 304.655 3.75233 329.696 -7.76105C338.494 -11.8062 359.491 -24.1497 369.058 -15.1524C373.408 -11.0613 370.256 -2.78551 368.374 1.55577C363.654 12.4497 356.293 21.3718 347.635 29.6304C325.878 50.3844 300.178 67.7204 273.664 82.4879C261.648 89.1803 249.007 95.0857 236.581 101.059C226.861 105.732 216.051 109.999 205.358 112.115C189.235 115.306 178.261 107.173 175.145 92.0531C172.256 78.0354 179.181 59.8034 189.08 49.4442C204.027 33.8006 223.381 26.3071 242.409 16.4006C263.051 5.65322 283.511 -5.58644 303.096 -18.0095C316.236 -26.3444 329.802 -34.8345 341.059 -45.4631C343.617 -47.8793 350.858 -55.0828 344.77 -47.8855C332.81 -33.7452 311.667 -16.3953 314.492 3.72969C318.824 34.6038 369.327 17.8751 386.118 11.2453C412.628 0.777858 436.896 -13.2993 462.238 -26.022C480.746 -35.314 496.29 -40.8195 517 -34.9661" stroke="white" stroke-width="2" stroke-linecap="round" stroke-linejoin="round"/>
</svg>
