<svg width="585" height="294" viewBox="0 0 585 294" fill="none" xmlns="http://www.w3.org/2000/svg">
<path d="M1.00293 332.525C6.23544 331.404 11.8704 331.465 16.7005 329.162C42.6898 316.767 79.6785 287.374 99.7977 272.019C133.276 246.469 165.414 217.984 200.42 194.404C210.405 187.677 221.67 181.83 233.517 179.371C248.185 176.326 264.25 175.668 279.035 179.093M279.035 179.093C280.84 179.511 282.627 179.99 284.389 180.533C310.619 188.617 341.397 210.486 350.834 237.344C356.007 252.069 353.853 267.708 348.176 281.986C342.242 296.909 335.472 307.03 323.924 317.742C306.967 333.469 281.15 343.077 259.223 330.241C239.283 318.569 221.09 303.325 218.194 278.913C214.903 251.177 232.358 223.67 249.589 203.54C257.708 194.055 267.667 185.018 279.035 179.093ZM279.035 179.093C284.994 175.987 291.34 173.737 298.01 172.726C308.047 171.205 318.495 169.698 328.793 169.469M328.793 169.469C331.713 169.404 334.62 169.442 337.503 169.612C351.062 170.409 364.701 172.383 378.117 174.47C380.369 174.821 382.612 175.104 384.85 175.334M328.793 169.469C331.034 165.93 333.941 162.621 336.05 160.434C345.407 150.73 361.49 150.135 374.006 150.135C380.013 150.135 385.985 150.089 391.946 149.93M328.793 169.469C326.858 172.526 325.419 175.755 325.419 178.582C325.419 186.771 330.633 192.431 334.389 199.138C340.539 210.121 350.936 218.265 354.571 230.699C361.172 253.281 361.997 278.359 356.232 301.213C351.228 321.05 333.982 338.954 318.317 351.213C297.717 367.334 272.417 373.705 247.222 378.165C226.909 381.76 178.94 394.598 172.181 363.505C167.04 339.857 182.676 320.93 195.104 303.041C202.187 292.845 230.887 261.982 210.262 252.958C201.711 249.217 189.166 251.102 181.234 255.45C162.283 265.838 146.162 281.823 129.656 295.483C119.623 303.786 109.373 312.439 96.3509 315.333C89.213 316.919 80.987 316.08 74.2581 318.323M384.85 175.334C395.151 176.389 405.342 176.298 415.825 176.298C429.193 176.298 442.215 177.149 455.566 176.186M384.85 175.334C385.435 172.904 386.056 170.484 386.714 168.075L386.756 167.919C388.27 162.378 389.947 156.238 391.946 149.93M384.85 175.334C377.15 207.302 375.584 240.94 375.584 273.68C375.584 289.361 377.101 309.646 389.538 320.981C403.568 333.768 415.288 302.699 416.448 293.074C419.271 269.639 414.596 245.319 424.172 222.975C431.729 205.342 441.893 189.132 455.566 176.186M455.566 176.186C456.616 176.11 457.668 176.023 458.723 175.924C477.471 174.155 493.863 168.248 511.214 161.348C523.989 156.267 535.691 148.394 545.827 138.972M455.566 176.186C461.509 170.559 468.115 165.549 475.459 161.306C496.644 149.066 522.149 144.892 545.827 138.972M545.827 138.972C548.306 136.667 550.692 134.269 552.977 131.797M545.827 138.972C548.802 138.228 551.747 137.457 554.652 136.639C556.956 135.99 559.235 135.314 561.49 134.609M552.977 131.797C554.612 130.028 556.196 128.22 557.725 126.381C560.605 122.918 563.651 119.468 566.73 115.986M552.977 131.797C555.839 132.669 558.695 133.594 561.49 134.609M552.977 131.797C545.979 129.666 538.951 127.85 532.726 125.8C517.611 120.822 501.682 118.446 487.476 111.338M566.73 115.986C579.191 101.895 592.211 87.2731 597.094 69.0727C601.799 51.5363 594.773 33.4786 583.005 20.6026M566.73 115.986C556.506 110.934 546.527 105.549 538.539 97.5609C533.076 92.0971 529.041 84.6669 526.702 76.6531M566.73 115.986C572.999 119.084 579.361 122.057 585.411 125.429M583.005 20.6026C581.874 19.3649 580.698 18.1752 579.486 17.0383C568.051 6.31795 556.502 6.3769 544.436 16.1663C536.161 22.8801 530.069 35.7584 526.662 45.7341C523.485 55.0382 523.688 66.3299 526.702 76.6531M583.005 20.6026C584.529 19.2864 586.148 18.0782 587.916 17.0383C601.534 9.02791 614.459 -0.277887 631.313 2.12984C656.686 5.75469 660.641 41.5086 653.405 61.0994C645.761 81.7978 626.616 99.4799 608.971 111.846C601.348 117.189 593.521 121.641 585.411 125.429M583.005 20.6026C579.797 23.3736 577.014 26.623 574.17 29.7874C568.545 36.0484 561.825 41.4402 556.064 47.6444C549.586 54.6207 541.92 60.1994 535.466 67.3286C532.64 70.4507 529.699 73.5717 526.702 76.6531M526.702 76.6531C522.877 80.5847 518.962 84.452 515.076 88.1756C506.635 96.2654 496.828 104.134 487.476 111.338M585.411 125.429C593.805 130.106 601.601 135.55 607.725 143.158C613.78 150.681 618.28 158.503 614.992 168.366C613.343 173.313 609.674 178.954 605.411 183.963M585.411 125.429C577.715 129.024 569.763 132.02 561.49 134.609M605.411 183.963C601.821 188.182 597.809 191.954 594.228 194.487C585.321 200.787 575.184 205.757 564.287 206.904C561.919 207.153 559.572 207.129 557.242 206.912M605.411 183.963C608.139 194.154 608.958 204.92 607.808 215.5C606.878 224.057 599.61 231.535 592.692 235.973C588.629 238.579 584.162 240.633 579.656 242.599M605.411 183.963C601.355 168.809 593.077 154.926 580.773 144.82C575.395 140.401 568.647 137.208 561.49 134.609M557.242 206.912C549.104 206.154 541.168 203.05 533.24 201.062M557.242 206.912C555.946 203.996 554.929 200.909 554.32 197.56C553.047 190.557 551.237 183.277 550.416 176.298C549.918 172.059 543.404 177.304 542.526 178.582C538.029 185.123 535.638 193.105 533.24 201.062M557.242 206.912C561.646 216.822 569.272 224.749 575.042 234.271C576.662 236.943 578.219 239.728 579.656 242.599M533.24 201.062C531.989 200.748 530.738 200.462 529.486 200.218C517.664 197.908 506.573 198.274 494.686 198.723C486.755 199.022 483.497 202.982 480.525 209.52C475.703 220.128 478.637 237.564 487.045 245.649C492.14 250.548 500.216 248.207 505.982 246.729C516.737 243.971 522.974 226.456 527.285 217.618C529.795 212.474 531.519 206.775 533.24 201.062ZM579.656 242.599C586.24 255.754 590.307 270.713 586.338 284.851C578.57 312.523 550.442 330.192 524.628 338.422C512.674 342.234 495.8 345.504 483.474 341.329C475.799 338.73 464.342 332.327 463.416 323.431C462.046 310.287 474.466 296.213 483.806 288.672C491.138 282.752 499.658 279.075 508.39 275.757C519.625 271.488 530.338 265.885 541.28 260.931C550.483 256.765 559.4 252.144 568.439 247.643C572.061 245.839 575.872 244.25 579.656 242.599ZM487.476 111.338C485.54 110.37 483.636 109.313 481.771 108.15C468.137 99.6512 452.602 90.958 435.966 94.82C411.342 100.536 399.404 126.396 391.946 149.93M487.476 111.338C486.748 111.899 486.023 112.456 485.301 113.009C474.256 121.467 464.044 131.625 451.04 137.012C440.442 141.403 430.549 146.973 418.939 148.225C409.915 149.197 400.943 149.691 391.946 149.93M255.729 305.713C248.51 303.992 241.907 300.685 237.739 294.26C232.333 285.925 232.434 273.266 233.058 263.845C233.962 250.196 238.76 237.454 246.984 226.511C254.696 216.251 265.233 206.31 278.606 204.93C292.108 203.536 307.355 211.846 316.897 220.711C326.191 229.345 334.501 241.032 337.169 253.569C338.663 260.593 337.428 267.012 335.917 273.944C334.343 281.166 331.82 287.797 327.099 293.597C322.718 298.979 316.744 303.565 310.316 306.243" stroke="white" stroke-width="2" stroke-linecap="round" stroke-linejoin="round"/>
</svg>
