<svg width="336" height="42" viewBox="0 0 336 42" fill="none" xmlns="http://www.w3.org/2000/svg">
<path d="M11.1211 26.4531V41H0.320312V1.02344H13.418C24.2826 1.02344 29.7148 4.96094 29.7148 12.8359C29.7148 17.4661 27.4544 21.0482 22.9336 23.582L34.582 41H22.332L13.8555 26.4531H11.1211ZM11.1211 18.332H13.1445C16.918 18.332 18.8047 16.6641 18.8047 13.3281C18.8047 10.5755 16.9544 9.19922 13.2539 9.19922H11.1211V18.332Z" fill="white"/>
<path d="M76.5 41H52.7656V1.02344H76.5V9.69141H63.5664V15.9805H75.543V24.6484H63.5664V32.1953H76.5V41Z" fill="white"/>
<path d="M108.684 41H98.0469V1.02344H121.672V9.69141H108.684V17.3203H120.66V25.9883H108.684V41Z" fill="white"/>
<path d="M180.188 20.957C180.188 27.6836 178.538 32.7969 175.238 36.2969C171.939 39.7969 167.108 41.5469 160.746 41.5469C154.475 41.5469 149.663 39.7878 146.309 36.2695C142.973 32.7513 141.305 27.6289 141.305 20.9023C141.305 14.2487 142.964 9.17188 146.281 5.67188C149.617 2.15365 154.457 0.394531 160.801 0.394531C167.163 0.394531 171.984 2.13542 175.266 5.61719C178.547 9.09896 180.188 14.2122 180.188 20.957ZM152.68 20.957C152.68 28.6862 155.368 32.5508 160.746 32.5508C163.48 32.5508 165.504 31.612 166.816 29.7344C168.147 27.8568 168.812 24.931 168.812 20.957C168.812 16.9648 168.138 14.0208 166.789 12.125C165.458 10.2109 163.462 9.25391 160.801 9.25391C155.387 9.25391 152.68 13.1549 152.68 20.957Z" fill="white"/>
<path d="M219.754 9.30859C217.184 9.30859 215.178 10.3659 213.738 12.4805C212.298 14.5768 211.578 17.4753 211.578 21.1758C211.578 28.8685 214.504 32.7148 220.355 32.7148C222.124 32.7148 223.837 32.4688 225.496 31.9766C227.155 31.4844 228.823 30.8919 230.5 30.1992V39.332C227.164 40.8086 223.391 41.5469 219.18 41.5469C213.146 41.5469 208.516 39.7969 205.289 36.2969C202.081 32.7969 200.477 27.7383 200.477 21.1211C200.477 16.9831 201.251 13.3464 202.801 10.2109C204.368 7.07552 206.611 4.66927 209.527 2.99219C212.462 1.29688 215.908 0.449219 219.863 0.449219C224.184 0.449219 228.312 1.38802 232.25 3.26562L228.941 11.7695C227.465 11.0768 225.988 10.4935 224.512 10.0195C223.035 9.54557 221.449 9.30859 219.754 9.30859Z" fill="white"/>
<path d="M286.855 1.02344V25.0859C286.855 30.3177 285.37 34.3737 282.398 37.2539C279.445 40.1159 275.18 41.5469 269.602 41.5469C264.151 41.5469 259.958 40.1523 257.023 37.3633C254.107 34.5742 252.648 30.5638 252.648 25.332V1.02344H263.504V24.4844C263.504 27.3099 264.033 29.3607 265.09 30.6367C266.147 31.9128 267.706 32.5508 269.766 32.5508C271.971 32.5508 273.566 31.9219 274.551 30.6641C275.553 29.388 276.055 27.3099 276.055 24.4297V1.02344H286.855Z" fill="white"/>
<path d="M335.938 28.8594C335.938 31.3385 335.309 33.5443 334.051 35.4766C332.793 37.3906 330.979 38.8854 328.609 39.9609C326.24 41.0182 323.46 41.5469 320.27 41.5469C317.608 41.5469 315.375 41.3646 313.57 41C311.766 40.6172 309.888 39.9609 307.938 39.0312V29.4062C309.997 30.4635 312.139 31.293 314.363 31.8945C316.587 32.4779 318.629 32.7695 320.488 32.7695C322.092 32.7695 323.268 32.4961 324.016 31.9492C324.763 31.3841 325.137 30.6641 325.137 29.7891C325.137 29.2422 324.982 28.7682 324.672 28.3672C324.38 27.9479 323.897 27.5286 323.223 27.1094C322.566 26.6901 320.798 25.8333 317.918 24.5391C315.311 23.3542 313.352 22.2057 312.039 21.0938C310.745 19.9818 309.779 18.7057 309.141 17.2656C308.521 15.8255 308.211 14.1211 308.211 12.1523C308.211 8.47005 309.551 5.59896 312.23 3.53906C314.91 1.47917 318.592 0.449219 323.277 0.449219C327.415 0.449219 331.635 1.40625 335.938 3.32031L332.629 11.6602C328.892 9.94661 325.665 9.08984 322.949 9.08984C321.546 9.08984 320.525 9.33594 319.887 9.82812C319.249 10.3203 318.93 10.931 318.93 11.6602C318.93 12.444 319.331 13.1458 320.133 13.7656C320.953 14.3854 323.159 15.5156 326.75 17.1562C330.195 18.7057 332.583 20.3737 333.914 22.1602C335.263 23.9284 335.938 26.1615 335.938 28.8594Z" fill="white"/>
</svg>
