<svg width="28" height="28" viewBox="0 0 28 28" fill="none" xmlns="http://www.w3.org/2000/svg">
<path d="M18.6667 4.66675H21.0001C21.6189 4.66675 22.2124 4.91258 22.65 5.35017C23.0876 5.78775 23.3334 6.38124 23.3334 7.00008V23.3334C23.3334 23.9523 23.0876 24.5457 22.65 24.9833C22.2124 25.4209 21.6189 25.6667 21.0001 25.6667H7.00008C6.38124 25.6667 5.78775 25.4209 5.35017 24.9833C4.91258 24.5457 4.66675 23.9523 4.66675 23.3334V7.00008C4.66675 6.38124 4.91258 5.78775 5.35017 5.35017C5.78775 4.91258 6.38124 4.66675 7.00008 4.66675H9.33341" stroke="#2F4653" stroke-width="2" stroke-linecap="round" stroke-linejoin="round"/>
<path d="M17.4999 2.33325H10.4999C9.85559 2.33325 9.33325 2.85559 9.33325 3.49992V5.83325C9.33325 6.47758 9.85559 6.99992 10.4999 6.99992H17.4999C18.1443 6.99992 18.6666 6.47758 18.6666 5.83325V3.49992C18.6666 2.85559 18.1443 2.33325 17.4999 2.33325Z" stroke="#2F4653" stroke-width="2" stroke-linecap="round" stroke-linejoin="round"/>
</svg>
