<svg width="41" height="54" viewBox="0 0 41 54" fill="none" xmlns="http://www.w3.org/2000/svg">
<path d="M30.5585 1C21.95 3.4518 13.8589 6.11215 6.83591 11.3677C6.38789 11.703 1.45047 15.1207 3.1566 16.1331C4.18477 16.7432 5.84764 16.584 6.94883 16.4832C10.2787 16.1784 13.5847 15.4093 16.8293 14.6898C21.2096 13.7184 26.0163 12.1905 30.5773 13.0586C34.5969 13.8238 33.9804 17.8589 32.4405 20.4031C28.8936 26.2635 22.9498 31.5129 16.9893 35.3483C14.6682 36.8419 11.0759 39.3177 7.92747 38.585C3.67289 37.5949 7.74345 31.1383 8.66145 29.3788C11.0336 24.8321 14.2338 20.7047 17.0269 16.3722C17.7336 15.2761 18.9319 13.9247 18.8431 12.5548C18.7983 11.8634 17.8397 11.4235 17.1775 11.7264C13.6042 13.3608 10.7588 17.5421 9.76242 20.9497C9.04113 23.4165 8.97072 26.9261 12.0491 28.1234C15.6846 29.5374 20.3454 28.3835 24.1409 28.3113C26.253 28.271 28.8354 28.7799 29.4669 30.8904C30.1494 33.1708 27.9318 35.6682 25.957 36.8087C24.4609 37.6727 22.6335 37.6417 21.9013 35.9461C20.2852 32.2034 22.524 27.5986 23.6516 24.0241C24.239 22.1621 26.0367 18.5247 25.1572 16.4747C24.2367 14.3293 19.5871 15.7899 18.1279 16.2355C13.7364 17.5766 9.27849 19.4644 5.64084 22.1111C3.75245 23.4852 1.50242 25.3705 1.04877 27.6537C0.6757 29.5313 2.50933 30.5898 4.28581 30.9929C8.86411 32.0316 14.493 29.8586 18.6078 28.2942C22.2171 26.922 25.8167 25.2261 29.0435 23.2128C29.2105 23.1086 31.5097 21.8623 30.6714 21.5646C28.3645 20.7453 25.0779 21.7839 23.0117 22.6406C18.8442 24.3686 15.6654 27.3605 13.9875 31.232C13.0298 33.4419 13.1447 35.4327 15.1261 37.1076C16.9984 38.6902 19.5906 38.8905 21.6755 40.1137C26.3633 42.8641 26.1693 50.3555 20.885 52.6164C17.4238 54.0973 12.3635 51.0276 11.6256 47.9023C11.062 45.5153 13.7216 43.2182 15.3802 41.7363C18.1133 39.2943 21.8061 37.5418 25.3077 36.1852C27.9676 35.1548 37.2055 32.2432 37.4466 37.2271C37.5737 39.8543 35.2725 42.6293 33.3815 44.4264C31.2117 46.4885 28.7875 47.765 25.6465 48.0218C22.778 48.2564 19.9649 47.8054 17.1399 47.424C14.2789 47.0378 11.3874 46.8468 8.57676 46.1942C5.45404 45.4693 3.59179 45.0087 2.14033 42.4195C0.58202 39.6398 2.25947 37.1153 4.94451 35.3141C9.56843 32.2124 16.6028 31.5676 22.1836 31.4369C27.9001 31.3031 34.0355 30.4964 38.1806 26.4837C40.4782 24.2594 40.774 21.4685 38.0583 19.2331C35.0837 16.7847 30.0599 18.0316 27.8296 20.6593C24.9565 24.0445 28.1785 29.0351 28.526 32.7863C28.7225 34.9077 28.5985 36.9855 28.5354 39.106C28.5001 40.2893 28.355 41.6317 28.9023 42.744C30.7302 46.4585 35.9016 41.2091 36.8067 39.3707C38.7286 35.467 37.2775 32.1541 35.4799 28.5418C34.7837 27.1426 34.0806 25.6452 32.8734 24.5365C32.0601 23.7896 30.9217 23.3777 30.0504 22.6748" stroke="white" stroke-linecap="round" stroke-linejoin="round"/>
</svg>
