<svg width="842" height="642" viewBox="0 0 842 642" fill="none" xmlns="http://www.w3.org/2000/svg">
<path d="M406.971 333.886C400.332 334.76 393.614 335.334 387.556 338.391C382.549 340.918 378.172 344.34 374.408 348.483C365.183 358.636 359.541 373.958 362.874 387.634C369.158 413.426 398.849 427.966 423.121 418.329C434.772 413.703 444.395 405.314 449.513 393.796C452.05 388.089 454.338 381.665 453.379 375.327C452.578 370.034 450.519 365.204 447.825 360.627C442.83 352.138 435.494 345.333 427.006 340.432C419.582 336.146 411.94 334.751 403.484 334.574M394.873 334.323C401.823 332.724 409.47 330.706 416.315 333.783C417.856 334.476 419.347 335.469 420.964 335.968M394.982 333.521C395.142 330.967 395.199 328.466 395.169 325.92C395.157 324.873 395.548 324.6 396.526 324.304C398.12 323.822 399.804 323.781 401.448 323.572C404.522 323.179 407.536 322.772 410.64 322.717C413.855 322.661 417.404 322.615 420.51 323.574C422.399 324.157 421.997 326.337 422.09 328.007C422.176 329.554 422.217 331.104 422.021 332.643C421.986 332.923 421.799 333.885 421.973 334.052M447.184 360.143C447.783 359.774 452.365 356.049 453.2 357.342C454.306 359.057 454.971 361.184 455.611 363.101C455.982 364.214 457.542 366.539 456.336 367.3C455.117 368.07 453.329 368.336 452.311 369.401M400.5 340.503C394.61 341.877 389.414 343.63 384.547 347.252C380.723 350.098 377.721 353.228 375.166 357.274C370.01 365.439 366.793 375.079 368.718 384.785C370.869 395.629 377.903 404.798 388.159 409.051C399.208 413.634 412.568 414.179 423.667 409.422C429.317 407 434.305 402.096 437.839 397.179C441.778 391.699 444.067 385.375 443.559 378.561C442.86 369.189 438.134 360.036 431.454 353.588C425.85 348.178 419.043 344.731 411.601 342.435C408.551 341.493 405.426 340.948 402.243 340.742C400.728 340.644 399.411 340.589 398.034 341.235M404.201 356.045C404.22 363.751 404.316 371.586 403.653 379.279C403.565 380.301 403.598 381.51 403.292 382.501M404.289 355.761C403.144 356.716 402.019 357.727 400.797 358.587C400.57 358.748 400.642 358.789 400.97 358.848C403.147 359.241 405.46 359.218 407.666 359.371C408.147 359.404 407.211 358.398 407.132 358.302C406.554 357.607 406.027 356.889 405.519 356.141M403.417 383.791C408.056 382.399 412.731 381.169 417.39 379.853C418.359 379.579 419.317 379.244 420.283 378.942M420.283 378.942C420.933 378.739 421.586 378.55 422.248 378.404C422.328 378.386 423.454 378.235 422.914 378.068C421.877 377.748 420.826 377.519 419.788 377.199C419.077 376.98 419.998 378.387 420.122 378.628C420.176 378.732 420.23 378.837 420.283 378.942ZM420.283 378.942C420.619 379.602 420.947 380.264 421.32 380.896C421.77 381.657 423.042 379.318 423.301 379.047M547.613 202.194C547.182 201.959 546.737 201.697 546.279 201.428M546.279 201.428C544.407 200.328 542.333 199.113 540.202 199.161C538.132 199.207 537.125 200.388 535.836 201.921C531.838 206.675 528.346 211.752 525.217 217.117C519.279 227.296 512.905 237.22 506.919 247.372C503.533 253.116 500.095 258.744 496.523 264.372C494.951 266.849 493.217 269.346 492.229 272.13C491.619 273.85 491.128 274.764 491.86 276.673C493.276 280.368 497.275 283.587 500.219 286.028C502.316 287.767 504.313 289.613 506.439 291.319C509.124 293.474 511.995 295.066 514.95 296.801C519.335 299.375 524.074 303.234 529.283 303.881C534.345 304.51 538.044 297.182 540.508 294.056C544.246 289.314 547.643 284.495 550.948 279.442C554.746 273.633 557.737 267.348 561.567 261.577C567.082 253.267 572.004 244.785 575.157 235.261C576.116 232.363 577.358 229.259 577.802 226.226C578.061 224.453 578.692 222.536 578.011 220.777C576.803 217.654 574.688 215.523 572.004 213.586C566.363 209.515 559.931 206.98 553.543 204.331C551.141 203.335 548.736 202.294 546.279 201.428ZM546.279 201.428C545.681 201.217 545.08 201.017 544.475 200.83M540.053 207.106C535.836 213.705 531.498 220.203 528.001 227.219C525.73 231.774 523.208 236.114 520.527 240.432C518.743 243.304 517.171 246.279 515.242 249.062C513.792 251.156 512.272 253.201 510.891 255.341C507.831 260.084 504.322 264.488 501.85 269.58C501.705 269.878 501.491 270.419 501.677 270.726C503.569 273.835 507.059 275.961 509.928 278.022C513.64 280.689 517.476 282.968 521.353 285.368C523.824 286.897 526.334 289.319 529.128 290.181C529.995 290.448 530.795 290.291 531.548 289.772C532.251 289.287 532.788 288.58 533.31 287.919C534.91 285.888 536.471 283.817 538.027 281.752L538.138 281.605C544.865 272.679 550.598 263.085 556.689 253.729C561.036 247.052 565.494 240.489 569.687 233.71C571.046 231.512 573.144 228.369 572.269 225.591C571.517 223.201 568.854 221.749 566.932 220.366C563.463 217.868 559.852 215.832 556.007 213.969C552.09 212.07 548.123 210.172 544.457 207.809C544.037 207.538 541.04 205.415 540.784 206.245M508.227 284.166C508.464 284.412 510.236 286.748 511.002 286.182C511.804 285.59 509.88 283.972 509.527 283.715C508.893 283.255 507.923 282.713 508.168 283.811M327.263 111.109C315.397 122.29 302.548 132.577 289.905 142.874C283.25 148.294 276.77 154.033 270.2 159.551C269.071 160.499 267.483 161.553 268.227 163.16C269.033 164.902 270.762 165.839 271.822 167.363C272.357 168.132 273.304 169.625 274.377 169.712C276.64 169.895 279.052 166.934 280.47 165.695C288.898 158.321 297.555 151.222 305.919 143.769C311.698 138.62 317.446 133.478 323.299 128.412C326.464 125.672 329.923 123.22 332.312 119.729C333.431 118.093 332.568 117.012 331.385 115.661C330.175 114.277 329.842 111.805 328.333 110.726M320.435 117.809C322.537 119.771 324.971 121.573 326.333 124.151M266.624 162.613C264.958 166.595 263.367 170.879 261.195 174.636C260.325 176.143 262.523 174.874 263.263 174.534C265.597 173.462 268.314 173.383 270.543 172.284C271.81 171.66 273.484 170.333 274.929 170.411M352.857 162.564C362.801 162.423 371.719 160.535 381.013 157.086C387.127 154.816 393.796 152.255 399.472 149.039C400.376 148.526 402.862 145.586 404.008 146.127C406.247 147.184 407.638 152.125 408.404 154.085C411.104 160.993 413.037 168.23 416.658 174.744C424.828 189.441 439.171 197.234 451.098 208.16C452.519 209.462 454.032 210.748 455.358 212.131C456.832 213.668 452.138 213.806 451.319 214.118C434.275 220.622 420.332 234.134 402.174 238.027C398.693 238.773 393.42 233.898 390.861 232.149C381.724 225.907 372.559 219.642 366.972 209.765C360.271 197.919 359.632 183.403 353.288 171.397C352.892 170.648 350.379 162.839 350.666 162.927M366.853 177.604C376.624 174.426 386.3 170.923 396.021 167.593M364.532 189.074C373.78 185.461 383.033 181.839 392.325 178.342C394.567 177.497 397.695 175.321 400.175 175.456M370.445 203.085C382.751 195.623 395.512 189.399 409.072 184.538M377.853 211.464C383.933 211.224 389.209 210.777 394.52 207.562C398.705 205.029 402.412 201.96 406.9 199.913C411.371 197.875 416.459 196.011 421.408 195.9M393.411 218.703C402.819 214.672 412.224 210.219 421.991 207.089C423.321 206.662 424.611 206.488 425.989 206.332M402 227.202C409.698 222.921 417.47 218.789 425.759 215.766M417.051 444.497C436.104 439.101 457.98 433.62 470.283 416.596C477.906 406.046 481.327 390.919 482.93 378.24C485.107 361.026 479.354 341.825 468.775 328.105C460.339 317.164 448.195 307.45 435.51 301.206M435.51 301.206C433.323 300.129 431.12 299.156 428.918 298.297C425.711 297.047 422.466 295.91 419.188 294.881M435.51 301.206C443.942 301.724 452.355 302.562 460.708 303.592M435.51 301.206C426.782 300.669 418.034 300.475 409.314 300.764M419.188 294.881C412.821 292.882 406.332 291.292 399.761 290.076C396.084 289.396 391.915 289.072 387.835 288.485M419.188 294.881C424.008 291.562 428.516 287.778 432.738 283.663M419.188 294.881C416.033 297.054 412.744 299.028 409.314 300.764M387.835 288.485C383.923 287.922 380.094 287.117 376.86 285.522C364.418 279.383 375.025 266.097 384.367 263.828C403.734 259.123 424.442 265.119 443.428 257.377C446.44 256.148 449.426 254.76 452.37 253.232M387.835 288.485C381.98 293.037 377.656 298.62 381.146 303.649M387.835 288.485C393.288 284.247 400.067 280.902 403.101 279.73C413.559 275.688 423.499 278.544 432.738 283.663M452.37 253.232C465.938 246.193 478.625 236.205 488.909 225.384C497.721 216.113 504.506 204.687 509.517 192.957C512.027 187.082 514.247 179.76 512.849 173.299C511.796 168.434 499.625 178.447 498.309 179.599C487.053 189.452 476.903 202.715 468.933 215.305C461.326 227.32 457.507 240.579 452.37 253.232ZM452.37 253.232C448.445 262.901 443.75 272.215 436.006 280.353C434.936 281.477 433.847 282.581 432.738 283.663M432.738 283.663C440.485 287.956 447.739 293.841 454.391 298.585C456.588 300.152 458.681 301.834 460.708 303.592M409.314 300.764C406.408 302.236 403.401 303.537 400.289 304.645C396.042 306.158 387.56 309.309 383.314 305.909C382.394 305.172 381.679 304.417 381.146 303.649M409.314 300.764C406.105 300.871 402.899 301.042 399.7 301.287C393.455 301.764 387.304 302.692 381.146 303.649M381.146 303.649C378.238 304.102 375.329 304.56 372.407 304.981C364.707 306.091 356.928 305.064 349.173 305.458C335.776 306.141 323.196 306.016 310.722 304.787M460.708 303.592C467.057 309.101 472.744 315.355 478.868 321.135C488.513 330.24 498.18 341.922 509.891 348.328C518.427 352.996 527.529 355.924 536.875 357.454M460.708 303.592C461.706 303.715 462.704 303.841 463.7 303.969C480.358 306.116 498.336 311.514 511.082 322.801C521.052 331.629 529.815 342.75 536.615 354.869M536.875 357.454C537.294 357.522 537.713 357.588 538.132 357.651M536.875 357.454C536.803 356.91 536.74 356.365 536.687 355.82C536.657 355.502 536.633 355.184 536.615 354.869M536.875 357.454C536.98 358.241 537.105 359.027 537.247 359.811M538.132 357.651C538.632 357.726 539.132 357.797 539.633 357.864M538.132 357.651C538.31 357.986 538.485 358.321 538.659 358.657M538.132 357.651C537.638 356.718 537.132 355.791 536.615 354.869M539.633 357.864C552.387 359.575 565.535 358.771 578.276 356.315C584.15 355.183 590.807 353.538 597.54 351.284M539.633 357.864C539.309 358.128 538.984 358.393 538.659 358.657M539.633 357.864C556.414 344.233 573.848 331.197 587.719 314.944M597.54 351.284C613.265 346.021 629.408 337.442 636.976 324.339C637.051 324.209 637.122 324.079 637.191 323.948M597.54 351.284C596.824 349.957 596.139 348.604 595.488 347.22C590.592 336.801 588.877 326.207 587.719 314.944M597.54 351.284C602.669 360.785 609.384 368.945 616.163 377.425C625.902 389.61 641.587 412.28 625.469 425.917C613.29 436.221 592.678 437.174 578.288 431.453C568.047 427.381 559.149 420.93 554.443 410.687C550.775 402.7 550.881 393.833 548.829 385.424C546.621 376.374 543.144 367.303 538.659 358.657M637.191 323.948C639.085 320.345 638.752 316.195 637.215 312.491M637.191 323.948C637.069 320.107 637.084 316.29 637.215 312.491M637.191 323.948C637.374 329.69 637.866 335.486 638.743 341.359C641.82 361.961 653.894 381.164 669.166 395.036C681.474 406.216 696.279 414.402 709.387 424.624C718.169 431.472 726.869 438.33 730.751 449.242C736.747 466.1 729.256 480.085 720.823 494.347M637.215 312.491C636.144 309.91 634.488 307.547 632.595 305.736C627.237 300.614 620.016 300.503 612.959 300.896C607.217 301.216 601.706 302.167 596.363 303.633M637.215 312.491C637.776 296.137 640.464 280.117 643.426 263.913M596.363 303.633C593.193 304.504 590.081 305.556 587.017 306.766M596.363 303.633C593.687 307.589 590.79 311.345 587.719 314.944M596.363 303.633C597.794 301.519 599.161 299.348 600.459 297.113C609.542 281.471 614.933 262.43 617.834 243.42M587.017 306.766C581.811 308.821 576.738 311.332 571.736 314.181C557.579 322.246 535.551 335.877 536.615 354.869M587.017 306.766C586.107 292.876 586.675 279.405 587.644 265.381C588.791 248.765 592.706 231.087 599.534 215.021M587.017 306.766C587.147 308.756 587.308 310.756 587.502 312.767C587.573 313.495 587.645 314.221 587.719 314.944M537.247 359.811C538.437 366.392 540.81 372.899 542.45 379.282C545.737 392.066 546.872 404.483 545.679 417.66C543.755 438.92 535.81 465.163 518.833 479.524C509.293 487.593 499.92 486.184 492.599 476.674C474.004 452.518 483.395 421.432 499.305 398.438C509.653 383.482 523.146 371.371 537.247 359.811ZM537.247 359.811C537.717 359.426 538.188 359.041 538.659 358.657M617.834 243.42C619.484 232.607 620.329 221.804 620.59 211.642C620.628 210.151 620.036 181.356 612.647 191.534C607.467 198.668 603.103 206.624 599.534 215.021M617.834 243.42C625.173 251.371 633.792 258.155 643.426 263.913M617.834 243.42C610.284 235.241 604.089 225.826 599.534 215.021M599.534 215.021C597.946 211.251 596.557 207.313 595.38 203.198C589.762 183.557 588.608 163.165 593.699 143.282C594.636 139.626 595.837 135.239 597.402 130.697M310.722 304.787C300.981 303.828 291.304 302.194 281.353 299.744M310.722 304.787C314.889 297.11 318.588 289.063 321.67 280.882M310.722 304.787C306.932 311.771 302.754 318.448 298.301 324.64M281.353 299.744C278.94 299.15 276.511 298.508 274.061 297.817M281.353 299.744C279.604 297.567 277.812 295.435 275.978 293.341M281.353 299.744C284.493 303.655 287.491 307.709 290.324 311.938C293.028 315.974 295.72 320.225 298.301 324.64M274.061 297.817C273.838 297.753 273.614 297.69 273.39 297.626C271.59 297.111 269.669 296.544 267.683 295.912M274.061 297.817C267.526 313.382 259.908 328.053 251.674 342.861C248.318 348.898 243.329 357.36 239.113 366.421M274.061 297.817C274.675 296.354 275.28 294.884 275.874 293.405C275.879 293.392 275.885 293.379 275.89 293.366M267.683 295.912C256.445 292.335 243.11 286.684 237.62 276.837C234.198 270.698 235.567 263.903 239.002 257.497M267.683 295.912C258.61 298.998 249.921 302.988 242.157 308.822C231.887 316.539 221.362 330.611 218.639 343.38C216.17 354.955 227.897 366.721 239.113 366.421M267.683 295.912C270.389 294.991 273.13 294.151 275.89 293.366M239.002 257.497C243.565 248.989 251.773 241.169 257.235 236.493C269.01 226.413 283.851 220.048 299.178 218.001C301.756 217.656 304.197 217.563 306.492 217.7M239.002 257.497C229.57 247.771 221.783 236.509 220.048 222.692C217.832 205.043 228.313 197.095 244.511 193.929C267.559 189.425 290.376 196.561 309.506 209.165M239.002 257.497C242.384 260.984 245.977 264.274 249.578 267.413C258.947 275.579 267.832 284.049 275.924 293.28M306.492 217.7C324.022 218.748 333.064 233.256 329.659 252.34C327.973 261.787 325.234 271.424 321.67 280.882M306.492 217.7C297.274 243.206 286.034 268.138 275.924 293.28M306.492 217.7C307.224 215.675 307.943 213.646 308.648 211.614C308.931 210.796 309.217 209.98 309.506 209.165M321.67 280.882C314.289 283.612 306.678 285.727 299.022 287.582C291.392 289.431 283.61 291.175 275.978 293.341M321.67 280.882C326.41 279.13 331.054 277.124 335.555 274.771C338.885 273.03 350.163 268.967 350.96 264.232C351.88 258.766 345.48 250.217 342.834 245.914C334.507 232.375 327.039 221.695 313.806 212.134C312.395 211.115 310.961 210.124 309.506 209.165M298.301 324.64C297.342 325.974 296.37 327.285 295.387 328.571C282.956 344.836 261.31 365.123 239.609 366.4C239.444 366.409 239.278 366.416 239.113 366.421M298.301 324.64C307.592 340.532 315.447 358.546 317.246 376.245C320.759 410.795 274.772 421.822 249.068 415.714C224.152 409.793 229.714 386.619 239.113 366.421M275.89 293.366C275.919 293.358 275.949 293.35 275.978 293.341M275.89 293.366C275.901 293.338 275.913 293.309 275.924 293.28M275.978 293.341C275.96 293.321 275.942 293.301 275.924 293.28M309.506 209.165C323.289 170.227 342.503 135.319 374.277 107.86C378.239 104.436 382.306 101.096 386.475 97.8754M386.475 97.8754C400.288 87.2053 415.216 77.8564 431.144 71.1644M386.475 97.8754C384.506 96.5284 382.559 95.1422 380.636 93.7169C371.18 86.7107 361.235 79.3234 354.206 69.7146C341.596 52.4768 357.902 31.7948 377.448 33.2982C399.805 35.0178 418.084 53.3536 431.144 71.1644M386.475 97.8754C402.399 108.77 419.783 117.1 438.296 122.812C448.35 125.914 458.747 127.601 469.276 128.412M431.144 71.1644C447.755 64.1855 465.454 60.0962 484.11 60.411C510.838 60.862 538.304 79.3186 541.694 107.472C542.533 114.438 540.431 121.183 536.524 127M431.144 71.1644C432.964 73.6463 434.683 76.1181 436.297 78.5333C446.78 94.2177 455.721 114.32 469.276 128.412M536.524 127C528.429 139.053 512.581 147.118 499.081 144.893C486.739 142.859 477.216 136.666 469.276 128.412M536.524 127C532.612 127.122 528.701 127.3 524.794 127.524C506.643 128.564 487.756 129.836 469.276 128.412M536.524 127C556.895 126.362 577.298 127.212 597.402 130.697M597.402 130.697C599.952 131.139 602.498 131.623 605.038 132.152C618.987 135.058 632.634 139.218 646.077 143.928M597.402 130.697C601.633 118.412 608.521 104.982 619.997 101.75C632.191 98.3161 640.574 125.221 643.225 133.731L643.356 134.15C644.368 137.395 645.273 140.654 646.077 143.928M646.077 143.928C650.189 145.368 654.281 146.86 658.357 148.383C683.23 157.677 708.614 169.249 726.842 189.204C744.717 208.77 751.498 237.337 739.002 261.847C723.941 291.389 685.415 283.485 660.534 272.653C654.543 270.045 648.825 267.14 643.426 263.913M646.077 143.928C649.97 159.783 651.483 175.969 651.284 192.375C651.087 208.637 650.338 224.758 647.605 240.811C646.28 248.589 644.823 256.271 643.426 263.913M686.419 409.122C679.567 411.184 673.057 413.159 666.79 415.795M666.79 415.795C662.151 417.747 657.644 420.061 653.232 423.041C642.593 430.225 633.297 439.558 626.104 450.197C615.379 466.059 607.64 485.858 604.408 504.661C601.368 522.343 603.26 540.616 621.38 548.866C641.272 557.922 665.605 548.32 682.947 537.93C698.619 528.54 711.685 516.051 723.758 502.58M666.79 415.795C669.449 407.253 672.918 398.93 676.602 391.33C684.237 375.581 694.031 360.253 705.961 347.405C714.949 337.725 730.029 325.531 744.47 328.493C754.671 330.585 761.706 341.53 764.061 350.931C767.487 364.609 764.282 377.417 758.545 389.941C751.922 404.399 744.144 418.361 736.973 432.555C727.204 451.888 719.789 471.979 722.032 494.014M666.79 415.795C664.195 424.135 662.372 432.683 661.874 440.969C660.874 457.626 663.348 474.843 677.6 485.401C687.695 492.881 699.949 493.929 712.185 494.103C715.467 494.15 718.75 494.114 722.032 494.014M723.758 502.58C726.418 499.612 729.03 496.596 731.611 493.555M723.758 502.58C726.798 512.283 733.356 520.17 743.329 524.227C753.812 528.492 765.165 530.081 776.42 529.774C799.672 529.139 822.016 518.806 838.996 503.163C841.561 500.8 844.058 498.314 846.472 495.718M723.758 502.58C722.927 499.925 722.359 497.135 722.056 494.251C722.048 494.172 722.04 494.093 722.032 494.014M731.611 493.555C734.928 489.648 738.193 485.699 741.445 481.757C761.698 457.199 782.056 433.661 808.219 415.05C821.916 405.308 846.168 390.234 863.47 400.512C878.066 409.183 881.286 425.684 877.334 440.996C872.142 461.114 860.772 480.337 846.472 495.718M731.611 493.555C728.418 493.759 725.225 493.917 722.032 494.014M731.611 493.555C762.073 491.616 792.507 485.585 822.936 489.535C831.29 490.62 839.032 492.678 846.472 495.718M846.472 495.718C851.61 497.817 856.605 500.384 861.559 503.423C867.184 506.873 872.552 510.82 876.88 515.849C880.712 520.301 882.555 525.113 885.007 530.312M698.598 297.263C688.594 292.094 676.201 288.832 665.019 291.764C662.627 292.391 659.613 293.574 657.734 295.267C657.448 295.525 656.667 295.98 656.526 296.359C656.224 297.165 656.473 298.415 656.532 299.219C656.878 303.953 657.402 308.675 657.82 313.402C658.362 319.544 658.903 325.647 659.865 331.741C660.685 336.939 661.61 342.115 662.322 347.33C662.863 351.297 663.116 355.235 663.411 359.221C663.528 360.806 663.71 362.372 664.163 363.898C664.362 364.566 664.569 364.125 664.993 363.753C666.485 362.442 668.018 361.185 669.504 359.864C679.819 350.693 689.616 341.075 699.061 331.008C702.511 327.33 705.65 323.607 708.751 319.654C710.372 317.589 711.955 315.632 713.112 313.261C714.743 309.919 712.325 307.065 709.732 304.898C707.256 302.83 704.799 300.738 702.071 298.997C700.066 297.717 697.48 295.737 695.051 295.541M657.303 303.5C662.057 301.911 666.956 299.824 672.002 299.382C675.159 299.106 678.456 299.263 681.58 299.802C688.864 301.058 695.65 304.868 701.67 308.999C704.683 311.066 706.85 313.139 708.606 316.315C708.787 316.644 708.757 317.176 709.007 317.415M657.471 313.12C660.937 313.164 669.949 312.157 669.837 318.008C669.77 321.497 667.007 324.377 664.445 326.444C663.332 327.342 662.255 327.417 660.917 327.429C660.657 327.431 659.572 327.258 660.402 327.514M690.207 303.614C688.223 306.049 686.114 308.495 686.873 311.822C688.034 316.915 693.632 320.626 698.152 322.544C699.174 322.978 703.069 323.722 704.099 322.645M663.161 336.365C666.118 334.803 672.871 334.496 673.636 338.935C674.055 341.367 673.157 344.056 671.695 345.987C669.959 348.28 667.316 349.686 664.373 349.183C663.817 349.088 661.474 348.792 661.951 347.913M680.493 324.93C678.845 325.916 676.643 326.961 676.549 329.185C676.499 330.363 677.209 331.904 678.205 332.572C680.739 334.271 684.549 332.571 686.086 330.246C687.268 328.457 686.28 325.839 684.535 324.878C682.954 324.009 681.075 323.796 679.392 324.433M142.504 -15.3481C164.565 -8.89555 187.414 -3.09491 197.744 19.4965C202.981 30.9472 206.084 42.5218 213.688 52.8259C241.104 89.9747 290.235 101.688 334.086 90.3731C376.573 79.4101 415.726 59.3387 455.368 41.1792C473.978 32.6544 493.196 26.7687 513.398 23.4368C531.022 20.5301 549.249 19.0901 566.803 23.2565C588.075 28.3056 600.825 41.1425 617.194 54.3737M791.88 174.052C764.284 177.043 723.15 186.729 707.999 213.344C701.927 224.012 700.373 237.139 704.974 248.607C718.895 283.304 750.686 311.636 776.164 337.819C799.219 361.512 827.117 382.85 845.667 410.482C864.663 438.777 867.531 476.771 861.192 509.638C856.889 531.953 846.444 557.165 828.01 571.421C812.483 583.429 796.722 586.522 777.791 588.141M792.614 251.637C787.708 262.475 782.272 273.055 777.339 283.872C775.625 287.63 773.924 291.464 772.572 295.37C772.495 295.591 772.269 296.212 772.447 296.061C773.96 294.773 775.188 293.109 776.642 291.75C779.027 289.523 782.528 287.194 785.947 288.476C788.049 289.264 789.048 291.275 788.432 293.415C787.417 296.94 784.65 299.384 781.173 300.362C779.105 300.944 771.73 300.429 772.093 296.881M857.004 296.615C848.076 296.509 839.781 294.309 830.976 293.158C827.738 292.735 824.497 292.307 821.254 291.918C820.361 291.811 818.318 291.178 817.592 292.057C816.248 293.686 818.174 299.095 818.417 300.87C819.505 308.825 820.091 317.067 822.531 324.761C822.661 325.17 824.449 330.195 823.419 328.604C821.678 325.912 819.114 323.773 815.861 323.205C811.239 322.399 809.868 325.892 809.939 329.974C810.042 335.922 817.739 338.127 821.89 334.579C823.069 333.571 824.722 330.615 823.208 329.167M819.973 300.797C826.753 302.181 833.484 303.34 840.399 303.757C843.878 303.967 847.362 304.077 850.817 304.572C852.138 304.761 853.525 304.816 854.805 305.211M857.275 296.473C856.926 303.073 856.956 309.636 857.437 316.228C857.739 320.364 858.472 324.457 858.983 328.569C859.472 332.502 859.785 336.489 860.74 340.346C861.059 341.633 862.029 343.228 862.107 344.551C862.153 345.323 861.42 343.783 861.39 343.739C860.355 342.239 859.333 340.739 858.322 339.223C857.18 337.511 855.176 334.774 852.881 334.578C849.356 334.277 848.277 338.637 848.77 341.303C849.575 345.65 854.335 347.808 858.457 346.729C859.323 346.503 860.994 346.002 861.304 344.994M287.604 -33.2896C289.506 -19.7829 291.548 -6.79884 288.212 6.65809C284.915 19.9538 279.495 33.6481 272.093 45.1941C262.92 59.5034 251.225 72.6194 239.168 84.5335C229.49 94.0979 219.247 103.388 207.72 110.689C196.401 117.858 184.693 122.129 172.532 124.113M172.532 124.113C161.467 125.918 150.028 125.83 138.165 124.307C122.049 122.237 96.8624 117.011 88.6019 100.784C80.8468 85.5502 92.7352 66.8796 102.65 55.746C121.328 34.772 147.532 20.2984 175.293 16.0546C196.613 12.7954 226.052 10.5523 240.92 29.7621C255.624 48.7599 239.558 72.092 224.731 85.162C208.369 99.5855 190.028 111.316 172.532 124.113ZM172.532 124.113C160.511 132.906 148.888 142.203 138.579 153.222C128.884 163.586 124.374 177.811 128.165 191.783C131.895 205.528 144.177 211.333 157.204 213.4C190.719 218.72 216.913 189.358 250.382 193.031M315.967 368.295C317.877 377.68 319.329 387.462 322.041 396.666C324.892 406.339 328.92 414.524 335.549 422.171C346.076 434.315 360.236 441.8 375.861 444.752C380.186 445.569 384.273 445.519 388.653 445.445C392.726 445.375 396.793 445.96 400.854 445.86C409.278 445.653 417.105 444.641 425.187 442.106M617.786 382.631C602.744 383.356 590.453 390.417 579.026 399.819C569.301 407.822 560.092 418.846 558.966 431.912C558.123 441.69 560.877 451.749 567.617 458.975C574.023 465.843 583.416 470.82 592.462 473.154C609.063 477.436 626.534 475.15 643.163 472.272C650.327 471.033 657.417 469.362 664.594 468.194C670.971 467.155 677.794 465.903 684.266 465.936C695.708 465.994 717.556 463.858 721.838 478.279M753.795 91.2293C748.784 84.7945 743.643 79.459 735.319 77.495C728.337 75.8476 720.674 75.2453 713.599 76.617C708.042 77.6944 702.753 79.7744 697.496 81.8104C696.328 82.2628 695.496 82.1219 695.703 83.3257C696.317 86.8919 696.438 90.5323 696.953 94.1145C697.963 101.14 698.949 108.181 700.07 115.19C700.944 120.654 701.714 126.122 702.33 131.622C702.53 133.409 702.678 135.214 703.166 136.951C703.702 138.863 704.336 137.418 705.842 136.381C711.271 132.643 718.297 129.536 724.99 129.778C733.275 130.077 741.549 134.062 748.022 139.033C751.363 141.6 754.303 144.472 757.294 147.417C758.217 148.326 757.952 144.167 757.965 143.517C758.042 139.552 757.492 135.617 757.243 131.666C757.116 129.642 756.808 127.669 756.462 125.672C755.964 122.792 756.052 119.891 755.745 116.995C755.383 113.577 754.715 110.274 754.443 106.833C754.197 103.725 753.751 100.671 753.476 97.5676C753.292 95.4821 753.625 93.4059 753.579 91.3434M755.065 91.8018C760.618 85.6809 766.265 79.7802 774.573 77.8184C780.784 76.3517 786.508 77.3249 792.224 80.1019C797.376 82.6052 802.263 86.4088 806.356 90.4071C806.979 91.016 807.651 91.4706 807.625 92.3453C807.41 99.6497 807.062 107.059 807.522 114.355C807.901 120.377 808.422 126.43 808.369 132.47C808.348 134.81 808.2 137.005 808.013 139.319C807.991 139.582 808.177 140.103 807.701 139.775C806.158 138.712 804.68 137.827 802.908 137.151C794.456 133.927 784.459 135.092 776.235 138.199C771.172 140.113 765.527 142.842 761.727 146.817C761.207 147.361 760.77 147.768 760.099 148.122M695.068 88.8333C694.857 88.8253 689.215 88.1245 689.329 89.5328C690.046 98.3391 690.274 107.219 691.701 115.951C692.909 123.343 694.671 130.682 695.586 138.117L695.602 138.249C695.83 140.102 696.068 142.03 696.631 143.811C697.544 146.699 702.226 145.772 704.511 145.64C715.856 144.985 726.856 146.169 738.132 147.228C743.184 147.702 748.266 147.795 753.319 148.289C754.997 148.453 756.585 148.548 758.245 148.273M757.038 148.082C765.999 149.3 775.122 149.412 784.142 149.085C788.228 148.936 792.296 149.182 796.386 148.976C800.511 148.769 804.677 148.878 808.786 148.495C810.209 148.362 811.609 148.113 813.04 148.05C813.636 148.024 813.556 147.583 813.522 147.074C813.071 140.299 813.525 133.641 813.475 126.856C813.446 123.07 813.74 119.309 813.333 115.535C813.042 112.848 813.016 110.234 812.968 107.54C812.915 104.596 813.323 101.949 812.263 99.149C811.989 98.4227 812.141 97.6607 811.859 96.9455C811.538 96.1316 808.871 96.4894 808.215 96.4538M712.742 138.751C716.534 137.635 720.911 135.852 724.947 135.97C727.858 136.055 730.803 137.114 733.506 138.109C737.052 139.414 740.635 140.682 743.913 142.585M773.536 145.581C779.662 143.282 786.713 139.325 793.474 141.169C795.366 141.685 797.643 142.398 799.327 143.417M615.648 52.8076C619.914 57.57 624.714 61.6135 629.903 65.3265C633.915 68.1966 637.876 71.3321 642.175 73.7613C648.867 77.5428 655.534 81.634 662.839 84.1121C669.393 86.3356 676.062 87.9188 682.993 88.2727C685.361 88.3935 687.696 88.5285 689.956 89.2259M814.057 112.917C825.312 114.304 837.298 116.942 845.461 125.371C854.184 134.379 857.769 146.91 856.382 159.344C855.124 170.629 841.749 173.417 832.593 174.812C827.624 175.57 822.599 176.005 817.579 175.564C813.381 175.195 809.269 174.306 805.051 174.064C798.63 173.697 792.057 173.929 785.669 174.607M648.191 243.731C667.995 250.438 687.755 257.081 708.772 258.614C722.348 259.603 736.106 257.752 749.47 255.535C768.803 252.329 786.429 245.609 804.59 238.511C816.747 233.758 828.541 227.833 839.771 220.912M839.771 220.912C861.598 207.459 881.293 190.242 897.367 170.56C908.629 156.769 918.542 140.05 919.366 121.832C919.808 112.079 918.796 96.8157 908.142 92.417C894.919 86.958 878.266 90.9257 867.044 98.9199C853.134 108.829 842.469 121.841 835.389 137.31C823.15 164.054 816.932 200.004 839.771 220.912ZM839.771 220.912C842.337 223.261 845.269 225.42 848.601 227.355C865.799 237.342 883.325 244.426 898.444 257.879C913.068 270.891 925.023 288.196 927.263 308.096C931.285 343.821 913.405 388.686 872.135 390.621C856.394 391.359 838.733 385.848 824.588 379.168M811.418 372.102C814.28 373.812 816.81 376.03 819.704 377.655C821.35 378.579 823.209 379.29 825.102 379.427M584.672 129.277C603.293 80.6839 625.21 28.1063 670.309 -1.99215C672.703 -3.59009 675.133 -5.12531 677.597 -6.59596M677.597 -6.59596C685.345 -11.2217 693.423 -15.2085 701.745 -18.4989M677.597 -6.59596C682.839 -4.57182 688.141 -2.65953 693.488 -0.871649M677.597 -6.59596C667.658 -10.4341 657.937 -14.6743 648.54 -19.2311C627.718 -29.3283 608.609 -42.6177 589.191 -55.3495M701.745 -18.4989C724.407 -27.4591 748.884 -31.2546 773.477 -28.7222C786.175 -27.4147 797.811 -24.208 808.234 -18.678M701.745 -18.4989C698.205 -12.7889 695.242 -6.88617 693.488 -0.871649M701.745 -18.4989C703.908 -21.9873 706.286 -25.4037 708.737 -28.7297C720.218 -44.314 736.68 -58.5986 755.295 -64.2245M808.234 -18.678C817.398 -13.8159 825.625 -7.1577 832.809 1.58484C839.723 9.99833 849.671 22.7618 843.232 34.2623C831.821 54.6439 796.458 62.49 775.532 61.5491C750.23 60.4116 714.839 53.6425 698.828 31.3886C691.053 20.5831 690.41 9.68364 693.488 -0.871649M808.234 -18.678C809.785 -22.1786 810.786 -25.7403 811.248 -29.2607M808.234 -18.678C807.548 -17.1291 806.754 -15.5922 805.852 -14.0761C794.173 5.54536 774.196 16.0177 751.325 12.8878C731.943 10.2352 712.433 5.46253 693.488 -0.871649M755.295 -64.2245C765.596 -67.338 776.557 -67.7997 787.698 -64.362C805.12 -58.9863 813.247 -44.511 811.248 -29.2607M755.295 -64.2245C731.715 -70.6606 705.103 -70.6288 681.548 -69.1774C650.516 -67.2653 619.678 -61.4443 589.191 -55.3495M755.295 -64.2245C759.979 -62.9459 764.544 -61.412 768.941 -59.5832C785.99 -52.4925 799.503 -41.7966 811.248 -29.2607M811.248 -29.2607C839.146 0.516827 857.072 40.6766 888.746 67.5592C920.988 94.9238 961.956 105.341 1002.59 113.612L1004.55 114.011C1028 118.779 1050.02 123.257 1071.71 133.685M589.191 -55.3495C579.559 -61.6649 569.851 -67.8431 559.82 -73.4265C524.788 -92.9263 488.012 -112.531 449.091 -123.041C414.882 -132.278 377.24 -127.723 347.008 -108.826C332.746 -99.9111 317.937 -86.0382 328.569 -68.8013C336.707 -55.6071 352.214 -49.93 366.242 -45.3562C385.042 -39.2269 404.53 -32.4882 424.398 -31.262C477.65 -27.9755 531.483 -43.7589 583.151 -54.1386C585.163 -54.5427 587.176 -54.9467 589.191 -55.3495Z" stroke="#2F4653" stroke-width="3.11418" stroke-linecap="round" stroke-linejoin="round"/>
</svg>
